:FULLY-SPECIFIED
:FORCE-ALL-JOINTS-BE-3DOF
:DEGREES
1053
root 1.30034 15.2277 32.7054 5.36163 -3.41733 3.59236
lfemur 6.69918 0.763205 4.32198
ltibia 4.24909 -0 0
lfoot -32.0555 -11.3676 -0.0103832
ltoes -33.3887 0 0
rfemur -30.3082 -13.7648 -7.00686
rtibia 48.9648 -0 0
rfoot -20.3716 3.56462 -0.0568462
rtoes -41.7516 0 0
lowerback -2.40069 -0.246749 -0.54861
upperback -0.730596 -0.27535 -6.22063
thorax 0.561795 -0.144933 -6.15374
lowerneck -7.44406 0.623425 5.62203
upperneck 2.16897 0.138581 3.89165
head 1.95738 0.230557 0.278408
lclavicle 1.11766e-15 1.3209e-14 1.46482e-31
lhumerus -58.4216 -45.965 114.475
lradius 55.6544 -0 0
lwrist 25.6141 0 0
lhand 38.543 25.111 -0.00688247
lfingers 7.12502 -0 0
lthumb 61.1644 37.5146 -0.0246433
rclavicle 1.11766e-15 1.3209e-14 1.46482e-31
rhumerus 0.95877 -16.1151 -1.15086
rradius 30.7936 -0 0
rwrist -10.8617 0 0
rhand -27.4741 -40.4801 0.0645481
rfingers 7.12502 -0 0
rthumb -0.878487 -70.3862 0.0657891
1054
root 1.29939 15.226 32.7047 5.35247 -3.42279 3.57976
lfemur 6.72125 0.764627 4.34336
ltibia 4.23341 -0 0
lfoot -32.066 -11.3375 -0.0101569
ltoes -33.4158 0 0
rfemur -30.3101 -13.7976 -6.98924
rtibia 48.9775 -0 0
rfoot -20.4149 3.60467 -0.0556067
rtoes -41.7313 0 0
lowerback -2.39216 -0.240566 -0.549369
upperback -0.724135 -0.267108 -6.21151
thorax 0.564694 -0.140616 -6.14323
lowerneck -7.4484 0.623766 5.64219
upperneck 2.16939 0.136741 3.89261
head 1.95834 0.229926 0.275244
lclavicle 1.11089e-15 1.3869e-14 1.43289e-31
lhumerus -58.4178 -45.9856 114.502
lradius 55.6546 -0 0
lwrist 25.613 0 0
lhand 38.5172 25.1192 -0.00673245
lfingers 7.12502 -0 0
lthumb 61.143 37.5496 -0.024106
rclavicle 1.11089e-15 1.3869e-14 1.43289e-31
rhumerus 0.989401 -16.3122 -1.10153
rradius 30.6964 -0 0
rwrist -10.805 0 0
rhand -27.5671 -40.5012 0.06314
rfingers 7.12502 -0 0
rthumb -0.968363 -70.4085 0.0643539
1055
root 1.29845 15.2242 32.7041 5.34332 -3.42826 3.56716
lfemur 6.74332 0.76604 4.36475
ltibia 4.21772 -0 0
lfoot -32.0765 -11.3073 -0.00992503
ltoes -33.443 0 0
rfemur -30.3119 -13.8303 -6.97161
rtibia 48.9902 -0 0
rfoot -20.4581 3.64472 -0.0543371
rtoes -41.711 0 0
lowerback -2.38363 -0.234384 -0.550128
upperback -0.717673 -0.258866 -6.20239
thorax 0.567594 -0.136299 -6.13272
lowerneck -7.45274 0.624108 5.66235
upperneck 2.16982 0.134901 3.89356
head 1.9593 0.229295 0.27208
lclavicle 1.10413e-15 1.45289e-14 1.40019e-31
lhumerus -58.4139 -46.0061 114.529
lradius 55.6548 -0 0
lwrist 25.612 0 0
lhand 38.4915 25.1273 -0.00657876
lfingers 7.12502 -0 0
lthumb 61.1216 37.5846 -0.0235557
rclavicle 1.10413e-15 1.45289e-14 1.40019e-31
rhumerus 1.01989 -16.5093 -1.05226
rradius 30.5992 -0 0
rwrist -10.7483 0 0
rhand -27.6602 -40.5224 0.0616975
rfingers 7.12502 -0 0
rthumb -1.05824 -70.4308 0.0628838
1056
root 1.2975 15.2225 32.7034 5.33417 -3.43373 3.55456
lfemur 6.76539 0.767445 4.38613
ltibia 4.20203 -0 0
lfoot -32.087 -11.2772 -0.00968765
ltoes -33.4701 0 0
rfemur -30.3138 -13.8631 -6.95398
rtibia 49.0029 -0 0
rfoot -20.5013 3.68477 -0.0530372
rtoes -41.6906 0 0
lowerback -2.37509 -0.228201 -0.550886
upperback -0.711209 -0.250626 -6.19327
thorax 0.570495 -0.131983 -6.12221
lowerneck -7.45707 0.624451 5.68251
upperneck 2.17025 0.133061 3.89451
head 1.96026 0.228663 0.268916
lclavicle 1.09737e-15 1.51888e-14 1.3667e-31
lhumerus -58.4101 -46.0267 114.555
lradius 55.6551 -0 0
lwrist 25.6109 0 0
lhand 38.4658 25.1355 -0.00642142
lfingers 7.12502 -0 0
lthumb 61.1001 37.6197 -0.0229923
rclavicle 1.09737e-15 1.51888e-14 1.3667e-31
rhumerus 1.05023 -16.7065 -1.00304
rradius 30.5021 -0 0
rwrist -10.6916 0 0
rhand -27.7533 -40.5435 0.0602208
rfingers 7.12502 -0 0
rthumb -1.14811 -70.453 0.0613788
1057
root 1.29655 15.2208 32.7028 5.32502 -3.4392 3.54196
lfemur 6.78747 0.768842 4.40752
ltibia 4.18634 -0 0
lfoot -32.0975 -11.2471 -0.00944475
ltoes -33.4972 0 0
rfemur -30.3157 -13.8959 -6.93635
rtibia 49.0156 -0 0
rfoot -20.5445 3.72482 -0.0517071
rtoes -41.6703 0 0
lowerback -2.36656 -0.222018 -0.551643
upperback -0.704745 -0.242386 -6.18415
thorax 0.573396 -0.127668 -6.1117
lowerneck -7.46141 0.624796 5.70268
upperneck 2.17068 0.131221 3.89547
head 1.96123 0.228032 0.265752
lclavicle 1.09061e-15 1.58487e-14 1.33244e-31
lhumerus -58.4063 -46.0473 114.582
lradius 55.6553 -0 0
lwrist 25.6099 0 0
lhand 38.4401 25.1436 -0.00626041
lfingers 7.12502 -0 0
lthumb 61.0787 37.6547 -0.0224157
rclavicle 1.09061e-15 1.58487e-14 1.33244e-31
rhumerus 1.08042 -16.9036 -0.953886
rradius 30.4049 -0 0
rwrist -10.6349 0 0
rhand -27.8464 -40.5646 0.0587098
rfingers 7.12502 -0 0
rthumb -1.23799 -70.4753 0.0598388
